<svg xmlns="http://www.w3.org/2000/svg" xmlns:xlink="http://www.w3.org/1999/xlink" width="500" zoomAndPan="magnify" viewBox="0 0 375 374.999991" height="500" preserveAspectRatio="xMidYMid meet" version="1.0"><defs><g/><clipPath id="b7b2e2518b"><path d="M 0.398438 12 L 46 12 L 46 70 L 0.398438 70 Z M 0.398438 12 " clip-rule="nonzero"/></clipPath><clipPath id="a24699acf4"><rect x="0" width="310" y="0" height="88"/></clipPath><clipPath id="3d47806a17"><path d="M 80.296875 201.121094 L 294.796875 201.121094 L 294.796875 245.371094 L 80.296875 245.371094 Z M 80.296875 201.121094 " clip-rule="nonzero"/></clipPath><clipPath id="1e3dfedfa7"><path d="M 273.09375 120.199219 L 316.59375 120.199219 L 316.59375 153.199219 L 273.09375 153.199219 Z M 273.09375 120.199219 " clip-rule="nonzero"/></clipPath><clipPath id="f56a0aafb7"><path d="M 324.097656 115.464844 L 341.347656 115.464844 L 341.347656 125 L 324.097656 125 Z M 324.097656 115.464844 " clip-rule="nonzero"/></clipPath><clipPath id="643ec9bafb"><path d="M 0.28125 2 L 76 2 L 76 11 L 0.28125 11 Z M 0.28125 2 " clip-rule="nonzero"/></clipPath><clipPath id="d6c0f21c87"><rect x="0" width="77" y="0" height="13"/></clipPath></defs><g transform="matrix(1, 0, 0, 1, 32, 128)"><g clip-path="url(#a24699acf4)"><g clip-path="url(#b7b2e2518b)"><g fill="#5f2403" fill-opacity="1"><g transform="translate(1.430491, 68.905659)"><g><path d="M 41.546875 -32.671875 C 42.984375 -30.484375 43.65625 -27.921875 43.5625 -24.984375 C 43.476562 -22.054688 43.117188 -19.390625 42.484375 -16.984375 C 41.910156 -14.796875 41.078125 -12.640625 39.984375 -10.515625 C 38.898438 -8.390625 37.4375 -6.609375 35.59375 -5.171875 C 32.664062 -2.816406 29.234375 -1.25 25.296875 -0.46875 C 21.359375 0.300781 17.582031 -0.03125 13.96875 -1.46875 C 10.457031 -2.90625 7.394531 -5.101562 4.78125 -8.0625 C 2.164062 -11.019531 0.457031 -14.394531 -0.34375 -18.1875 C -0.519531 -19.101562 -0.664062 -20.035156 -0.78125 -20.984375 C -0.894531 -21.929688 -0.953125 -22.863281 -0.953125 -23.78125 C -0.890625 -26.945312 -0.488281 -30.035156 0.25 -33.046875 C 1 -36.066406 2.351562 -38.8125 4.3125 -41.28125 C 5.632812 -43.007812 7.171875 -44.765625 8.921875 -46.546875 C 10.671875 -48.328125 12.4375 -49.847656 14.21875 -51.109375 C 15.882812 -52.316406 17.609375 -53.4375 19.390625 -54.46875 C 20.253906 -54.988281 21.203125 -55.390625 22.234375 -55.671875 C 23.265625 -55.960938 24.300781 -56.050781 25.34375 -55.9375 C 26.257812 -55.875 26.972656 -55.554688 27.484375 -54.984375 C 28.003906 -54.410156 28.265625 -53.75 28.265625 -53 C 28.554688 -52.488281 28.703125 -51.957031 28.703125 -51.40625 C 28.703125 -50.863281 28.671875 -50.273438 28.609375 -49.640625 C 28.554688 -49.296875 28.53125 -48.578125 28.53125 -47.484375 C 28.53125 -46.398438 28.53125 -45.164062 28.53125 -43.78125 C 28.53125 -42.40625 28.539062 -41.097656 28.5625 -39.859375 C 28.59375 -38.628906 28.609375 -37.664062 28.609375 -36.96875 L 28.875 -28.78125 C 28.875 -28.039062 28.882812 -27.3125 28.90625 -26.59375 C 28.9375 -25.875 28.984375 -25.171875 29.046875 -24.484375 C 29.046875 -23.898438 29.054688 -23.304688 29.078125 -22.703125 C 29.109375 -22.109375 29.066406 -21.519531 28.953125 -20.9375 C 28.898438 -20.707031 28.742188 -20.535156 28.484375 -20.421875 C 28.222656 -20.304688 27.976562 -20.304688 27.75 -20.421875 C 27.46875 -20.648438 27.296875 -20.796875 27.234375 -20.859375 C 27.117188 -20.796875 27.003906 -20.78125 26.890625 -20.8125 C 26.773438 -20.84375 26.660156 -20.859375 26.546875 -20.859375 C 25.972656 -21.023438 25.5 -21.3125 25.125 -21.71875 C 24.75 -22.125 24.414062 -22.582031 24.125 -23.09375 C 23.957031 -23.382812 23.828125 -23.671875 23.734375 -23.953125 C 23.648438 -24.242188 23.550781 -24.503906 23.4375 -24.734375 L 23.1875 -24.734375 L 23.1875 -24.484375 C 23.46875 -23.503906 23.925781 -22.484375 24.5625 -21.421875 C 25.195312 -20.359375 26.144531 -19.941406 27.40625 -20.171875 C 28.039062 -20.285156 28.484375 -20.140625 28.734375 -19.734375 C 28.992188 -19.335938 29.050781 -18.90625 28.90625 -18.4375 C 28.769531 -17.976562 28.382812 -17.722656 27.75 -17.671875 C 26.65625 -17.554688 25.578125 -17.8125 24.515625 -18.4375 C 23.453125 -19.070312 22.691406 -19.90625 22.234375 -20.9375 C 21.660156 -22.257812 21.328125 -23.625 21.234375 -25.03125 C 21.148438 -26.445312 21.082031 -27.84375 21.03125 -29.21875 L 20.515625 -45.859375 C 20.335938 -45.734375 20.160156 -45.597656 19.984375 -45.453125 C 19.816406 -45.316406 19.617188 -45.191406 19.390625 -45.078125 C 16.460938 -42.835938 14.164062 -40.25 12.5 -37.3125 C 10.832031 -34.382812 9.65625 -31.082031 8.96875 -27.40625 C 8.90625 -27.0625 8.859375 -26.84375 8.828125 -26.75 C 8.804688 -26.664062 8.796875 -26.484375 8.796875 -26.203125 C 8.734375 -25.972656 8.703125 -25.742188 8.703125 -25.515625 C 8.703125 -25.285156 8.703125 -25.054688 8.703125 -24.828125 C 8.648438 -23.785156 8.707031 -22.773438 8.875 -21.796875 C 9.050781 -20.828125 9.28125 -19.851562 9.5625 -18.875 C 10.375 -16.34375 11.582031 -14.039062 13.1875 -11.96875 C 14.789062 -9.90625 17.003906 -8.789062 19.828125 -8.625 C 19.992188 -8.625 20.175781 -8.609375 20.375 -8.578125 C 20.582031 -8.546875 20.769531 -8.53125 20.9375 -8.53125 C 24.269531 -8.644531 27.113281 -9.738281 29.46875 -11.8125 C 30.445312 -12.726562 31.195312 -13.675781 31.71875 -14.65625 C 32.519531 -16.03125 33.035156 -17.503906 33.265625 -19.078125 C 33.492188 -20.660156 33.582031 -22.203125 33.53125 -23.703125 C 33.46875 -24.390625 33.40625 -25.0625 33.34375 -25.71875 C 33.289062 -26.382812 33.125 -27.003906 32.84375 -27.578125 C 32.257812 -28.835938 32.097656 -30.113281 32.359375 -31.40625 C 32.617188 -32.707031 33.378906 -33.726562 34.640625 -34.46875 C 35.847656 -35.21875 37.113281 -35.390625 38.4375 -34.984375 C 39.757812 -34.585938 40.796875 -33.816406 41.546875 -32.671875 Z M 22.234375 -47.0625 C 21.835938 -46.71875 21.378906 -46.398438 20.859375 -46.109375 C 20.972656 -44.671875 21.113281 -43.234375 21.28125 -41.796875 C 21.457031 -40.359375 21.601562 -38.921875 21.71875 -37.484375 L 22.15625 -37.484375 C 22.09375 -39.097656 22.0625 -40.691406 22.0625 -42.265625 C 22.0625 -43.847656 22.117188 -45.445312 22.234375 -47.0625 Z M 32.75 -27.75 C 32.75 -27.8125 32.734375 -27.84375 32.703125 -27.84375 C 32.679688 -27.84375 32.671875 -27.867188 32.671875 -27.921875 C 32.671875 -27.921875 32.679688 -27.90625 32.703125 -27.875 C 32.734375 -27.851562 32.75 -27.8125 32.75 -27.75 Z M 32.84375 -27.578125 C 32.78125 -27.640625 32.75 -27.695312 32.75 -27.75 C 32.75 -27.695312 32.765625 -27.671875 32.796875 -27.671875 C 32.828125 -27.671875 32.84375 -27.640625 32.84375 -27.578125 Z M 32.84375 -27.578125 "/></g></g></g></g><g fill="#5f2403" fill-opacity="1"><g transform="translate(46.247102, 68.905659)"><g><path d="M 31.546875 -2.578125 C 31.203125 -2.703125 30.8125 -3.304688 30.375 -4.390625 C 29.945312 -5.484375 29.488281 -6.832031 29 -8.4375 C 28.507812 -10.050781 28.050781 -11.71875 27.625 -13.4375 C 27.195312 -15.164062 26.804688 -16.71875 26.453125 -18.09375 C 26.109375 -19.476562 25.878906 -20.484375 25.765625 -21.109375 L 19.046875 -21.03125 C 18.410156 -18.445312 17.863281 -15.875 17.40625 -13.3125 C 16.945312 -10.757812 16.601562 -8.160156 16.375 -5.515625 C 16.375 -4.992188 16.128906 -4.734375 15.640625 -4.734375 C 15.148438 -4.734375 14.9375 -4.992188 15 -5.515625 C 15.226562 -8.097656 15.554688 -10.695312 15.984375 -13.3125 C 16.421875 -15.925781 17.039062 -18.5 17.84375 -21.03125 L 17.0625 -21.03125 C 16.78125 -20 16.492188 -18.75 16.203125 -17.28125 C 15.910156 -15.8125 15.632812 -14.375 15.375 -12.96875 C 15.125 -11.5625 14.910156 -10.382812 14.734375 -9.4375 C 14.566406 -8.488281 14.484375 -8.015625 14.484375 -8.015625 L 13.96875 -4.140625 C 13.789062 -2.179688 13.125 -0.773438 11.96875 0.078125 C 10.820312 0.941406 9.5625 1.285156 8.1875 1.109375 C 6.8125 0.941406 5.648438 0.285156 4.703125 -0.859375 C 3.753906 -2.003906 3.421875 -3.585938 3.703125 -5.609375 C 4.046875 -8.128906 4.445312 -10.65625 4.90625 -13.1875 C 5.375 -15.71875 5.921875 -18.21875 6.546875 -20.6875 C 6.148438 -20.625 5.75 -20.578125 5.34375 -20.546875 C 4.9375 -20.523438 4.5625 -20.515625 4.21875 -20.515625 C 4.332031 -20.796875 4.363281 -21.050781 4.3125 -21.28125 C 2.925781 -21.632812 1.914062 -22.382812 1.28125 -23.53125 C 0.65625 -24.675781 0.484375 -25.953125 0.765625 -27.359375 C 1.054688 -28.765625 1.863281 -30.054688 3.1875 -31.234375 C 4.507812 -32.421875 6.460938 -33.210938 9.046875 -33.609375 C 9.679688 -36.484375 10.367188 -39.3125 11.109375 -42.09375 C 11.859375 -44.882812 12.78125 -47.601562 13.875 -50.25 C 14.394531 -51.394531 14.96875 -52.640625 15.59375 -53.984375 C 16.226562 -55.335938 17.019531 -56.515625 17.96875 -57.515625 C 18.914062 -58.523438 20.109375 -59.03125 21.546875 -59.03125 C 22.296875 -59.09375 23.039062 -58.894531 23.78125 -58.4375 C 24.53125 -57.976562 25.078125 -57.40625 25.421875 -56.71875 C 26.691406 -56.65625 27.742188 -56.207031 28.578125 -55.375 C 29.410156 -54.539062 29.882812 -53.4375 30 -52.0625 C 30.113281 -50.332031 30.253906 -48.59375 30.421875 -46.84375 C 30.597656 -45.09375 30.769531 -43.382812 30.9375 -41.71875 C 31 -41.65625 31.054688 -41.625 31.109375 -41.625 C 31.171875 -43.125 31.242188 -44.601562 31.328125 -46.0625 C 31.410156 -47.53125 31.539062 -48.984375 31.71875 -50.421875 C 31.71875 -50.648438 31.757812 -50.128906 31.84375 -48.859375 C 31.925781 -47.597656 32.023438 -45.976562 32.140625 -44 C 32.265625 -42.019531 32.382812 -40.035156 32.5 -38.046875 C 32.613281 -36.066406 32.753906 -34.414062 32.921875 -33.09375 C 34.585938 -32.925781 35.878906 -32.367188 36.796875 -31.421875 C 37.722656 -30.472656 38.300781 -29.378906 38.53125 -28.140625 C 38.757812 -26.898438 38.640625 -25.675781 38.171875 -24.46875 C 37.710938 -23.269531 36.882812 -22.296875 35.6875 -21.546875 C 36.257812 -19.015625 36.859375 -16.15625 37.484375 -12.96875 C 38.117188 -9.78125 38.609375 -6.894531 38.953125 -4.3125 C 39.179688 -2.351562 39.019531 -0.875 38.46875 0.125 C 37.925781 1.132812 37.207031 1.695312 36.3125 1.8125 C 35.425781 1.925781 34.539062 1.609375 33.65625 0.859375 C 32.769531 0.109375 32.066406 -1.035156 31.546875 -2.578125 Z M 18.78125 -32.234375 C 19.414062 -32.347656 20.234375 -32.421875 21.234375 -32.453125 C 22.242188 -32.484375 23.035156 -32.523438 23.609375 -32.578125 C 23.492188 -33.328125 23.363281 -34.390625 23.21875 -35.765625 C 23.082031 -37.148438 22.910156 -38.628906 22.703125 -40.203125 C 22.503906 -41.785156 22.265625 -43.238281 21.984375 -44.5625 C 21.285156 -42.144531 20.675781 -39.988281 20.15625 -38.09375 C 19.644531 -36.195312 19.1875 -34.242188 18.78125 -32.234375 Z M 18.78125 -32.234375 "/></g></g></g><g fill="#5f2403" fill-opacity="1"><g transform="translate(86.668237, 68.905659)"><g><path d="M 41.28125 -31.28125 C 41.34375 -30.539062 41.441406 -29.835938 41.578125 -29.171875 C 41.722656 -28.515625 41.851562 -27.8125 41.96875 -27.0625 C 42.144531 -26.488281 42.085938 -25.925781 41.796875 -25.375 C 41.515625 -24.832031 41.054688 -24.476562 40.421875 -24.3125 C 39.046875 -23.957031 37.925781 -24.238281 37.0625 -25.15625 C 36.195312 -26.082031 35.546875 -27.289062 35.109375 -28.78125 C 34.679688 -30.28125 34.382812 -31.691406 34.21875 -33.015625 C 34.15625 -33.015625 34.125 -33.023438 34.125 -33.046875 C 34.125 -33.078125 34.097656 -33.09375 34.046875 -33.09375 C 32.773438 -34.9375 31.234375 -36.546875 29.421875 -37.921875 C 27.617188 -39.296875 25.679688 -40.445312 23.609375 -41.375 C 21.429688 -42.34375 19.191406 -43.085938 16.890625 -43.609375 L 20.421875 -40.25 C 21.804688 -38.925781 23.1875 -37.570312 24.5625 -36.1875 C 25.9375 -34.8125 27.257812 -33.40625 28.53125 -31.96875 C 29.789062 -30.65625 31.050781 -29.320312 32.3125 -27.96875 C 33.582031 -26.613281 34.765625 -25.21875 35.859375 -23.78125 C 36.660156 -22.8125 37.347656 -21.78125 37.921875 -20.6875 C 38.492188 -19.59375 38.894531 -18.472656 39.125 -17.328125 C 39.582031 -16.234375 39.925781 -15.125 40.15625 -14 C 40.394531 -12.882812 40.425781 -11.75 40.25 -10.59375 C 40.1875 -8.757812 39.582031 -7.109375 38.4375 -5.640625 C 37.289062 -4.179688 35.851562 -3.019531 34.125 -2.15625 C 32.40625 -1.289062 30.625 -0.800781 28.78125 -0.6875 L 28.53125 -0.6875 C 27.09375 -0.457031 25.582031 -0.414062 24 -0.5625 C 22.425781 -0.707031 20.945312 -0.976562 19.5625 -1.375 C 17.664062 -1.78125 15.882812 -2.53125 14.21875 -3.625 C 14.050781 -2.875 13.804688 -2.164062 13.484375 -1.5 C 13.171875 -0.84375 12.726562 -0.285156 12.15625 0.171875 C 11.75 0.578125 11.242188 0.78125 10.640625 0.78125 C 10.035156 0.78125 9.503906 0.578125 9.046875 0.171875 C 8.585938 -0.285156 8.15625 -0.875 7.75 -1.59375 C 7.351562 -2.3125 7.097656 -3.046875 6.984375 -3.796875 C 6.753906 -4.078125 6.566406 -4.421875 6.421875 -4.828125 C 6.273438 -5.234375 6.144531 -5.632812 6.03125 -6.03125 C 5.800781 -8.445312 5.441406 -10.859375 4.953125 -13.265625 C 4.460938 -15.679688 3.90625 -18.066406 3.28125 -20.421875 C 2.9375 -21.742188 2.660156 -23.09375 2.453125 -24.46875 C 2.253906 -25.851562 2.066406 -27.234375 1.890625 -28.609375 C 1.722656 -29.816406 1.566406 -31.066406 1.421875 -32.359375 C 1.273438 -33.648438 1.316406 -34.929688 1.546875 -36.203125 C 1.722656 -37.003906 2.113281 -37.75 2.71875 -38.4375 C 3.320312 -39.125 4.050781 -39.523438 4.90625 -39.640625 C 5.945312 -39.753906 6.867188 -39.609375 7.671875 -39.203125 C 8.472656 -38.804688 9.046875 -38.09375 9.390625 -37.0625 C 10.316406 -34.25 10.976562 -31.347656 11.375 -28.359375 C 11.78125 -25.367188 12.46875 -22.4375 13.4375 -19.5625 C 13.84375 -18.53125 14.316406 -17.492188 14.859375 -16.453125 C 15.410156 -15.421875 16.0625 -14.503906 16.8125 -13.703125 C 17.269531 -13.296875 17.726562 -12.863281 18.1875 -12.40625 C 18.644531 -11.945312 19.132812 -11.519531 19.65625 -11.125 C 20.164062 -10.945312 20.679688 -10.8125 21.203125 -10.71875 C 21.722656 -10.632812 22.238281 -10.566406 22.75 -10.515625 C 24.53125 -10.335938 26.367188 -10.335938 28.265625 -10.515625 C 28.835938 -10.566406 29.484375 -10.664062 30.203125 -10.8125 C 30.921875 -10.957031 31.453125 -11.289062 31.796875 -11.8125 C 31.972656 -11.976562 32.0625 -12.234375 32.0625 -12.578125 C 32.289062 -13.035156 32.273438 -13.609375 32.015625 -14.296875 C 31.753906 -14.992188 31.539062 -15.515625 31.375 -15.859375 C 31.3125 -16.085938 31.222656 -16.316406 31.109375 -16.546875 C 30.992188 -16.773438 30.878906 -17.003906 30.765625 -17.234375 C 30.367188 -17.753906 29.96875 -18.269531 29.5625 -18.78125 C 29.15625 -19.300781 28.722656 -19.820312 28.265625 -20.34375 C 26.941406 -21.945312 25.59375 -23.523438 24.21875 -25.078125 C 22.84375 -26.628906 21.40625 -28.15625 19.90625 -29.65625 C 19.332031 -30.28125 18.757812 -30.910156 18.1875 -31.546875 C 17.613281 -32.179688 17.007812 -32.785156 16.375 -33.359375 L 15.078125 -34.390625 C 13.066406 -36.054688 11.140625 -37.789062 9.296875 -39.59375 C 7.460938 -41.40625 5.742188 -43.347656 4.140625 -45.421875 C 3.390625 -46.515625 2.710938 -47.675781 2.109375 -48.90625 C 1.503906 -50.144531 1.375 -51.484375 1.71875 -52.921875 C 2.0625 -54.359375 2.804688 -55.476562 3.953125 -56.28125 C 5.109375 -57.082031 6.40625 -57.425781 7.84375 -57.3125 C 8.820312 -57.257812 9.769531 -57.101562 10.6875 -56.84375 C 11.601562 -56.582031 12.519531 -56.304688 13.4375 -56.015625 C 13.84375 -56.128906 14.273438 -56.101562 14.734375 -55.9375 C 17.085938 -55.25 19.328125 -54.414062 21.453125 -53.4375 C 23.585938 -52.457031 25.660156 -51.304688 27.671875 -49.984375 C 28.640625 -49.410156 29.582031 -48.789062 30.5 -48.125 C 31.425781 -47.46875 32.320312 -46.738281 33.1875 -45.9375 L 33.609375 -45.5 C 33.609375 -46.25 33.609375 -46.984375 33.609375 -47.703125 C 33.609375 -48.421875 33.582031 -49.15625 33.53125 -49.90625 C 33.53125 -51.050781 33.957031 -52.039062 34.8125 -52.875 C 35.675781 -53.707031 36.65625 -54.125 37.75 -54.125 C 39.007812 -54.125 40 -53.707031 40.71875 -52.875 C 41.4375 -52.039062 41.851562 -51.050781 41.96875 -49.90625 C 42.257812 -47.894531 42.257812 -45.835938 41.96875 -43.734375 C 41.6875 -41.640625 41.457031 -39.585938 41.28125 -37.578125 C 41.226562 -35.453125 41.226562 -33.351562 41.28125 -31.28125 Z M 41.28125 -31.28125 "/></g></g></g><g fill="#5f2403" fill-opacity="1"><g transform="translate(130.536803, 68.905659)"><g><path d="M 49.21875 -50.765625 C 49.101562 -50.421875 48.988281 -50.132812 48.875 -49.90625 C 48.8125 -49.15625 48.664062 -48.40625 48.4375 -47.65625 C 48.207031 -46.914062 47.75 -46.316406 47.0625 -45.859375 C 46.769531 -45.617188 46.335938 -45.441406 45.765625 -45.328125 C 45.535156 -45.097656 45.332031 -44.984375 45.15625 -44.984375 C 42.976562 -44.585938 40.796875 -44.1875 38.609375 -43.78125 C 36.429688 -43.382812 34.25 -43.039062 32.0625 -42.75 C 32.0625 -40.851562 32.046875 -38.957031 32.015625 -37.0625 C 31.984375 -35.164062 31.96875 -33.269531 31.96875 -31.375 C 31.96875 -28.726562 31.984375 -26.097656 32.015625 -23.484375 C 32.046875 -20.867188 32.0625 -18.238281 32.0625 -15.59375 C 32.113281 -14.101562 32.171875 -12.597656 32.234375 -11.078125 C 32.296875 -9.554688 32.351562 -8.046875 32.40625 -6.546875 C 32.351562 -5.515625 32.195312 -4.523438 31.9375 -3.578125 C 31.675781 -2.628906 31.144531 -1.835938 30.34375 -1.203125 L 30.34375 -1.375 C 30.394531 -2.007812 30.421875 -2.628906 30.421875 -3.234375 C 30.421875 -3.835938 30.453125 -4.425781 30.515625 -5 L 30.515625 -8.28125 C 30.335938 -7.53125 30.191406 -6.609375 30.078125 -5.515625 C 29.960938 -4.421875 29.757812 -3.441406 29.46875 -2.578125 C 29.1875 -1.660156 28.582031 -0.972656 27.65625 -0.515625 C 26.738281 -0.0546875 25.820312 0.0546875 24.90625 -0.171875 C 23.125 -0.742188 21.945312 -1.878906 21.375 -3.578125 C 20.800781 -5.273438 20.457031 -6.957031 20.34375 -8.625 C 20.226562 -10.800781 20.179688 -13.007812 20.203125 -15.25 C 20.234375 -17.488281 20.28125 -19.703125 20.34375 -21.890625 C 20.457031 -24.078125 20.582031 -26.289062 20.71875 -28.53125 C 20.863281 -30.769531 20.96875 -33.007812 21.03125 -35.25 L 21.203125 -39.046875 L 21.203125 -41.796875 C 20.628906 -41.796875 20.066406 -41.796875 19.515625 -41.796875 C 18.972656 -41.796875 18.414062 -41.796875 17.84375 -41.796875 C 15.488281 -41.796875 13.191406 -41.882812 10.953125 -42.0625 C 10.023438 -42.175781 9.113281 -42.332031 8.21875 -42.53125 C 7.332031 -42.726562 6.488281 -43.0625 5.6875 -43.53125 C 5.113281 -43.925781 4.582031 -44.410156 4.09375 -44.984375 C 3.601562 -45.566406 3.21875 -46.203125 2.9375 -46.890625 C 2.070312 -47.347656 1.421875 -48.050781 0.984375 -49 C 0.554688 -49.945312 0.457031 -50.9375 0.6875 -51.96875 C 0.976562 -52.832031 1.507812 -53.609375 2.28125 -54.296875 C 3.0625 -54.984375 3.910156 -55.269531 4.828125 -55.15625 C 7.179688 -54.925781 9.535156 -54.738281 11.890625 -54.59375 C 14.242188 -54.457031 16.601562 -54.390625 18.96875 -54.390625 C 18.96875 -54.441406 18.976562 -54.484375 19 -54.515625 C 19.03125 -54.546875 19.046875 -54.585938 19.046875 -54.640625 C 14.390625 -54.929688 9.734375 -55.445312 5.078125 -56.1875 C 4.960938 -56.1875 4.921875 -56.273438 4.953125 -56.453125 C 4.984375 -56.628906 5.054688 -56.6875 5.171875 -56.625 C 11.203125 -56.28125 17.234375 -56.164062 23.265625 -56.28125 C 29.304688 -56.394531 35.3125 -56.710938 41.28125 -57.234375 C 41.738281 -57.347656 42.195312 -57.414062 42.65625 -57.4375 C 43.125 -57.46875 43.554688 -57.515625 43.953125 -57.578125 C 44.179688 -57.578125 44.425781 -57.585938 44.6875 -57.609375 C 44.945312 -57.640625 45.191406 -57.628906 45.421875 -57.578125 C 46.054688 -57.691406 46.703125 -57.773438 47.359375 -57.828125 C 48.015625 -57.890625 48.660156 -57.945312 49.296875 -58 C 49.703125 -58.0625 49.945312 -57.847656 50.03125 -57.359375 C 50.113281 -56.867188 49.925781 -56.566406 49.46875 -56.453125 C 49.1875 -56.453125 48.988281 -56.421875 48.875 -56.359375 C 49.101562 -56.242188 49.273438 -56.128906 49.390625 -56.015625 C 50.359375 -55.441406 50.828125 -54.535156 50.796875 -53.296875 C 50.773438 -52.066406 50.25 -51.222656 49.21875 -50.765625 Z M 10.953125 -44.125 C 12.441406 -44.007812 13.960938 -44.007812 15.515625 -44.125 C 13.785156 -44.300781 12.054688 -44.546875 10.328125 -44.859375 C 8.609375 -45.171875 6.914062 -45.585938 5.25 -46.109375 C 5.945312 -45.472656 6.8125 -45 7.84375 -44.6875 C 8.875 -44.375 9.910156 -44.1875 10.953125 -44.125 Z M 10.953125 -44.125 "/></g></g></g><g fill="#5f2403" fill-opacity="1"><g transform="translate(180.52457, 68.905659)"><g><path d="M 1.984375 -45.5 C 4.859375 -47 7.84375 -48.265625 10.9375 -49.296875 C 14.039062 -50.328125 17.144531 -51.25 20.25 -52.0625 L 22.234375 -52.578125 C 24.015625 -52.921875 25.796875 -53.25 27.578125 -53.5625 C 29.359375 -53.882812 31.171875 -54.101562 33.015625 -54.21875 C 33.410156 -54.269531 33.796875 -54.296875 34.171875 -54.296875 C 34.546875 -54.296875 34.9375 -54.296875 35.34375 -54.296875 C 33.675781 -53.890625 31.976562 -53.472656 30.25 -53.046875 C 28.53125 -52.617188 26.835938 -52.203125 25.171875 -51.796875 C 22.234375 -51.160156 19.3125 -50.484375 16.40625 -49.765625 C 13.507812 -49.054688 10.625 -48.210938 7.75 -47.234375 C 6.78125 -46.941406 5.820312 -46.609375 4.875 -46.234375 C 3.925781 -45.859375 2.960938 -45.441406 1.984375 -44.984375 C 1.753906 -45.097656 1.753906 -45.269531 1.984375 -45.5 Z M 50.328125 -10.421875 C 50.210938 -9.910156 49.925781 -9.625 49.46875 -9.5625 C 46.3125 -8.988281 43.140625 -8.285156 39.953125 -7.453125 C 36.765625 -6.617188 33.644531 -5.65625 30.59375 -4.5625 C 29.15625 -4.050781 27.703125 -3.535156 26.234375 -3.015625 C 24.773438 -2.492188 23.328125 -1.921875 21.890625 -1.296875 L 21.8125 -1.296875 C 21.75 -1.234375 21.660156 -1.1875 21.546875 -1.15625 C 21.429688 -1.132812 21.316406 -1.09375 21.203125 -1.03125 C 20.742188 -0.800781 20.269531 -0.597656 19.78125 -0.421875 C 19.289062 -0.253906 18.816406 -0.0546875 18.359375 0.171875 L 18.265625 0.265625 C 17.921875 0.492188 17.273438 0.78125 16.328125 1.125 C 15.378906 1.46875 14.488281 1.753906 13.65625 1.984375 C 12.820312 2.210938 12.40625 2.328125 12.40625 2.328125 C 12.40625 2.328125 12.304688 2.335938 12.109375 2.359375 C 11.910156 2.390625 11.722656 2.40625 11.546875 2.40625 C 10.859375 2.519531 10.171875 2.519531 9.484375 2.40625 C 8.796875 2.289062 8.273438 1.863281 7.921875 1.125 C 7.753906 0.78125 7.726562 0.375 7.84375 -0.09375 C 6.75 -0.550781 5.898438 -1.335938 5.296875 -2.453125 C 4.691406 -3.578125 4.59375 -4.6875 5 -5.78125 C 4.769531 -7.269531 4.582031 -8.773438 4.4375 -10.296875 C 4.289062 -11.816406 4.160156 -13.328125 4.046875 -14.828125 L 3.015625 -25.171875 L 1.984375 -34.984375 C 0.890625 -36.191406 0.429688 -37.601562 0.609375 -39.21875 C 0.773438 -40.820312 1.492188 -42.171875 2.765625 -43.265625 C 2.816406 -43.378906 2.867188 -43.492188 2.921875 -43.609375 C 2.984375 -43.722656 3.046875 -43.835938 3.109375 -43.953125 C 4.023438 -44.359375 4.941406 -44.734375 5.859375 -45.078125 C 6.773438 -45.421875 7.695312 -45.738281 8.625 -46.03125 C 11.488281 -47 14.375 -47.84375 17.28125 -48.5625 C 20.1875 -49.28125 23.101562 -49.925781 26.03125 -50.5 C 28.320312 -51.019531 30.585938 -51.582031 32.828125 -52.1875 C 35.078125 -52.789062 37.320312 -53.378906 39.5625 -53.953125 C 39.84375 -53.898438 40.140625 -53.859375 40.453125 -53.828125 C 40.773438 -53.796875 41.050781 -53.722656 41.28125 -53.609375 L 42.65625 -53.09375 C 42.882812 -52.914062 43.113281 -52.726562 43.34375 -52.53125 C 43.582031 -52.332031 43.816406 -52.144531 44.046875 -51.96875 C 44.328125 -51.050781 44.523438 -50.144531 44.640625 -49.25 C 44.753906 -48.363281 44.726562 -47.488281 44.5625 -46.625 L 40.25 -45.328125 C 39.332031 -45.046875 38.367188 -44.757812 37.359375 -44.46875 C 36.359375 -44.1875 35.367188 -43.898438 34.390625 -43.609375 C 34.160156 -43.492188 33.988281 -43.4375 33.875 -43.4375 C 32.78125 -43.144531 31.5 -42.785156 30.03125 -42.359375 C 28.570312 -41.929688 27.109375 -41.5 25.640625 -41.0625 C 24.171875 -40.632812 22.921875 -40.25 21.890625 -39.90625 C 20.859375 -39.5625 20.226562 -39.332031 20 -39.21875 C 18.613281 -38.757812 17.234375 -38.269531 15.859375 -37.75 C 14.484375 -37.226562 13.132812 -36.679688 11.8125 -36.109375 L 11.640625 -35.9375 C 11.691406 -35.65625 11.757812 -35.179688 11.84375 -34.515625 C 11.9375 -33.859375 12.023438 -33.238281 12.109375 -32.65625 C 12.191406 -32.082031 12.234375 -31.710938 12.234375 -31.546875 C 14.648438 -32.578125 17.050781 -33.59375 19.4375 -34.59375 C 21.820312 -35.601562 24.25 -36.566406 26.71875 -37.484375 C 28.09375 -37.835938 29.484375 -38.195312 30.890625 -38.5625 C 32.304688 -38.9375 33.703125 -39.328125 35.078125 -39.734375 L 36.203125 -39.984375 C 36.710938 -40.097656 37.210938 -40.171875 37.703125 -40.203125 C 38.191406 -40.234375 38.695312 -40.273438 39.21875 -40.328125 C 40.3125 -40.390625 41.34375 -40.316406 42.3125 -40.109375 C 43.289062 -39.910156 44.066406 -39.296875 44.640625 -38.265625 C 44.753906 -38.148438 44.828125 -38.035156 44.859375 -37.921875 C 44.890625 -37.804688 44.929688 -37.691406 44.984375 -37.578125 C 45.097656 -37.398438 45.179688 -37.222656 45.234375 -37.046875 C 45.296875 -36.878906 45.359375 -36.710938 45.421875 -36.546875 C 45.472656 -36.484375 45.53125 -36.453125 45.59375 -36.453125 C 46.394531 -36.054688 46.882812 -35.335938 47.0625 -34.296875 C 47.226562 -33.492188 47.097656 -32.675781 46.671875 -31.84375 C 46.242188 -31.007812 45.625 -30.394531 44.8125 -30 C 43.894531 -29.59375 42.960938 -29.34375 42.015625 -29.25 C 41.066406 -29.164062 40.101562 -29.007812 39.125 -28.78125 C 38.09375 -28.613281 37.046875 -28.425781 35.984375 -28.21875 C 34.921875 -28.019531 33.875 -27.78125 32.84375 -27.5 C 30.769531 -26.914062 28.710938 -26.296875 26.671875 -25.640625 C 24.628906 -24.984375 22.601562 -24.222656 20.59375 -23.359375 C 19.332031 -22.835938 18.113281 -22.289062 16.9375 -21.71875 C 15.757812 -21.144531 14.566406 -20.539062 13.359375 -19.90625 L 13.875 -14.3125 C 13.875 -14.25 13.875 -14.203125 13.875 -14.171875 C 13.875 -14.148438 13.875 -14.082031 13.875 -13.96875 L 14.140625 -14.140625 C 15.109375 -14.597656 16.066406 -15.007812 17.015625 -15.375 C 17.960938 -15.75 18.898438 -16.140625 19.828125 -16.546875 L 27.15625 -19.390625 C 27.78125 -19.679688 28.421875 -19.941406 29.078125 -20.171875 C 29.742188 -20.398438 30.394531 -20.628906 31.03125 -20.859375 C 32.0625 -21.253906 33.09375 -21.640625 34.125 -22.015625 C 35.164062 -22.390625 36.203125 -22.75 37.234375 -23.09375 L 40.59375 -24.125 C 41.050781 -24.25 41.507812 -24.410156 41.96875 -24.609375 C 42.425781 -24.804688 42.890625 -24.960938 43.359375 -25.078125 C 45.023438 -25.421875 46.390625 -25.273438 47.453125 -24.640625 C 48.515625 -24.015625 49.359375 -23.097656 49.984375 -21.890625 C 50.617188 -20.679688 51.09375 -19.359375 51.40625 -17.921875 C 51.726562 -16.484375 51.914062 -15.164062 51.96875 -13.96875 C 52.03125 -13.21875 51.898438 -12.539062 51.578125 -11.9375 C 51.265625 -11.332031 50.847656 -10.828125 50.328125 -10.421875 Z M 29.46875 -28.703125 C 28.15625 -28.296875 26.820312 -27.890625 25.46875 -27.484375 C 24.113281 -27.085938 22.773438 -26.660156 21.453125 -26.203125 C 20.597656 -25.972656 19.753906 -25.726562 18.921875 -25.46875 C 18.085938 -25.207031 17.269531 -24.960938 16.46875 -24.734375 C 16.289062 -23.753906 15.828125 -22.953125 15.078125 -22.328125 C 17.203125 -23.410156 19.367188 -24.382812 21.578125 -25.25 C 23.796875 -26.113281 25.96875 -26.976562 28.09375 -27.84375 C 28.550781 -28.070312 29.039062 -28.269531 29.5625 -28.4375 Z M 10.421875 1.125 C 11.054688 1.175781 11.773438 1.1875 12.578125 1.15625 C 13.390625 1.132812 13.851562 1.09375 13.96875 1.03125 C 14.082031 1.03125 14.164062 1.003906 14.21875 0.953125 C 14.5625 0.773438 14.90625 0.597656 15.25 0.421875 C 15.59375 0.253906 15.910156 0.0820312 16.203125 -0.09375 C 16.890625 -0.4375 17.5625 -0.78125 18.21875 -1.125 C 18.882812 -1.46875 19.535156 -1.8125 20.171875 -2.15625 L 20.171875 -2.328125 C 19.421875 -2.035156 18.644531 -1.742188 17.84375 -1.453125 C 17.039062 -1.171875 16.234375 -0.890625 15.421875 -0.609375 C 14.617188 -0.316406 13.800781 -0.015625 12.96875 0.296875 C 12.132812 0.617188 11.285156 0.894531 10.421875 1.125 Z M 10.421875 1.125 "/></g></g></g><g fill="#5f2403" fill-opacity="1"><g transform="translate(232.236046, 68.905659)"><g><path d="M 49.640625 -7.84375 C 48.835938 -5.945312 47.472656 -4.394531 45.546875 -3.1875 C 43.617188 -1.976562 41.679688 -1.144531 39.734375 -0.6875 C 37.492188 -0.164062 35.253906 0.078125 33.015625 0.046875 C 30.773438 0.015625 28.503906 -0.171875 26.203125 -0.515625 C 23.960938 -0.859375 21.835938 -1.289062 19.828125 -1.8125 C 19.421875 -0.945312 18.875 -0.429688 18.1875 -0.265625 C 17.78125 -0.203125 17.378906 -0.257812 16.984375 -0.4375 C 16.578125 -0.03125 16.113281 0.171875 15.59375 0.171875 C 15.019531 0.234375 14.457031 0.203125 13.90625 0.078125 C 13.363281 -0.0351562 12.863281 -0.234375 12.40625 -0.515625 C 11.488281 -1.148438 10.828125 -1.835938 10.421875 -2.578125 C 10.023438 -3.328125 9.710938 -4.21875 9.484375 -5.25 C 8.097656 -5.832031 6.726562 -6.421875 5.375 -7.015625 C 4.03125 -7.617188 2.695312 -8.269531 1.375 -8.96875 C 0.113281 -9.65625 -0.6875 -10.71875 -1.03125 -12.15625 C -1.375 -13.59375 -1.175781 -14.910156 -0.4375 -16.109375 C 0.257812 -17.316406 1.3125 -18.109375 2.71875 -18.484375 C 4.125 -18.859375 5.429688 -18.703125 6.640625 -18.015625 L 6.984375 -17.75 C 6.921875 -18.269531 6.832031 -18.773438 6.71875 -19.265625 C 6.601562 -19.753906 6.488281 -20.253906 6.375 -20.765625 C 5.457031 -25.597656 4.492188 -30.410156 3.484375 -35.203125 C 2.484375 -40.003906 1.492188 -44.789062 0.515625 -49.5625 C 0.460938 -49.726562 0.40625 -49.894531 0.34375 -50.0625 C 0.289062 -50.238281 0.234375 -50.382812 0.171875 -50.5 C -0.0546875 -51.363281 0.0820312 -52.125 0.59375 -52.78125 C 1.113281 -53.445312 1.75 -53.835938 2.5 -53.953125 C 2.726562 -54.015625 2.941406 -54.054688 3.140625 -54.078125 C 3.347656 -54.109375 3.535156 -54.125 3.703125 -54.125 C 3.992188 -54.875 4.539062 -55.460938 5.34375 -55.890625 C 6.144531 -56.328125 7.035156 -56.613281 8.015625 -56.75 C 8.992188 -56.894531 9.796875 -56.941406 10.421875 -56.890625 C 13.296875 -56.660156 15.835938 -55.738281 18.046875 -54.125 C 20.265625 -52.519531 22.378906 -50.738281 24.390625 -48.78125 C 26.628906 -46.65625 28.851562 -44.472656 31.0625 -42.234375 C 33.28125 -39.992188 35.421875 -37.695312 37.484375 -35.34375 C 38.234375 -34.59375 38.96875 -33.800781 39.6875 -32.96875 C 40.40625 -32.132812 41.082031 -31.285156 41.71875 -30.421875 C 42.8125 -28.984375 43.859375 -27.515625 44.859375 -26.015625 C 45.867188 -24.523438 46.773438 -22.945312 47.578125 -21.28125 C 48.609375 -19.269531 49.453125 -17.085938 50.109375 -14.734375 C 50.773438 -12.378906 50.617188 -10.082031 49.640625 -7.84375 Z M 3.1875 -43.265625 C 3.132812 -43.441406 2.960938 -43.710938 2.671875 -44.078125 C 2.378906 -44.453125 2.289062 -44.328125 2.40625 -43.703125 C 3.15625 -40.710938 3.859375 -37.738281 4.515625 -34.78125 C 5.179688 -31.820312 5.890625 -28.847656 6.640625 -25.859375 L 8.96875 -16.640625 C 9.25 -16.523438 9.519531 -16.378906 9.78125 -16.203125 C 10.039062 -16.023438 10.285156 -15.878906 10.515625 -15.765625 C 10.285156 -16.515625 10.039062 -17.25 9.78125 -17.96875 C 9.519531 -18.6875 9.304688 -19.421875 9.140625 -20.171875 C 8.910156 -20.972656 8.59375 -22.160156 8.1875 -23.734375 C 7.78125 -25.316406 7.347656 -27.070312 6.890625 -29 C 6.429688 -30.925781 5.957031 -32.835938 5.46875 -34.734375 C 4.976562 -36.628906 4.53125 -38.335938 4.125 -39.859375 C 3.726562 -41.378906 3.414062 -42.515625 3.1875 -43.265625 Z M 39.734375 -16.984375 C 39.097656 -17.953125 38.445312 -18.9375 37.78125 -19.9375 C 37.125 -20.945312 36.453125 -21.914062 35.765625 -22.84375 C 34.503906 -24.5625 33.140625 -26.222656 31.671875 -27.828125 C 30.203125 -29.441406 28.640625 -30.96875 26.984375 -32.40625 C 23.816406 -35.332031 20.222656 -37.945312 16.203125 -40.25 L 14.5625 -41.109375 C 15.3125 -37.546875 16.015625 -33.953125 16.671875 -30.328125 C 17.335938 -26.710938 17.957031 -23.125 18.53125 -19.5625 C 18.757812 -18.300781 18.988281 -17.023438 19.21875 -15.734375 C 19.445312 -14.441406 19.675781 -13.132812 19.90625 -11.8125 C 21.226562 -11.351562 22.578125 -10.90625 23.953125 -10.46875 C 25.335938 -10.039062 26.75 -9.679688 28.1875 -9.390625 C 29.332031 -9.160156 30.273438 -8.988281 31.015625 -8.875 C 31.765625 -8.757812 32.6875 -8.675781 33.78125 -8.625 C 34.820312 -8.625 35.710938 -8.648438 36.453125 -8.703125 C 37.203125 -8.765625 38.035156 -8.910156 38.953125 -9.140625 C 39.703125 -9.304688 40.378906 -9.519531 40.984375 -9.78125 C 41.585938 -10.039062 42.117188 -10.375 42.578125 -10.78125 C 42.515625 -11.351562 42.367188 -11.878906 42.140625 -12.359375 C 41.910156 -12.847656 41.65625 -13.351562 41.375 -13.875 C 41.144531 -14.394531 40.882812 -14.925781 40.59375 -15.46875 C 40.300781 -16.019531 40.015625 -16.523438 39.734375 -16.984375 Z M 39.734375 -16.984375 "/></g></g></g><g fill="#5f2403" fill-opacity="1"><g transform="translate(281.792872, 68.905659)"><g><path d="M 20.421875 -28.015625 L 20.421875 -22.328125 C 19.960938 -22.441406 19.515625 -22.46875 19.078125 -22.40625 C 18.648438 -22.351562 18.265625 -22.179688 17.921875 -21.890625 C 17.523438 -21.484375 17.28125 -20.921875 17.1875 -20.203125 C 17.101562 -19.492188 17.09375 -18.789062 17.15625 -18.09375 C 16.976562 -17.863281 16.789062 -17.707031 16.59375 -17.625 C 16.394531 -17.539062 16.148438 -17.441406 15.859375 -17.328125 C 15.453125 -17.378906 15.078125 -17.40625 14.734375 -17.40625 C 14.390625 -17.40625 14.019531 -17.4375 13.625 -17.5 C 12.8125 -17.78125 12.234375 -18.351562 11.890625 -19.21875 C 11.835938 -19.507812 11.8125 -19.8125 11.8125 -20.125 C 11.8125 -20.4375 11.78125 -20.738281 11.71875 -21.03125 C 11.4375 -20.96875 11.148438 -21.007812 10.859375 -21.15625 C 10.566406 -21.300781 10.394531 -21.546875 10.34375 -21.890625 C 10.226562 -24.929688 10.226562 -27.960938 10.34375 -30.984375 C 10.457031 -34.003906 10.570312 -37.003906 10.6875 -39.984375 C 10.800781 -42.972656 10.898438 -45.929688 10.984375 -48.859375 C 11.078125 -51.796875 11.179688 -54.757812 11.296875 -57.75 C 11.347656 -57.976562 11.460938 -58.117188 11.640625 -58.171875 C 11.640625 -58.285156 11.582031 -58.457031 11.46875 -58.6875 L 11.46875 -59.03125 C 11.863281 -59.613281 12.347656 -59.847656 12.921875 -59.734375 C 13.390625 -59.671875 13.796875 -59.664062 14.140625 -59.71875 C 14.484375 -59.78125 14.851562 -59.84375 15.25 -59.90625 C 15.707031 -59.90625 16.023438 -59.734375 16.203125 -59.390625 C 16.835938 -59.148438 17.15625 -58.742188 17.15625 -58.171875 C 17.207031 -57.890625 17.25 -57.601562 17.28125 -57.3125 C 17.3125 -57.03125 17.328125 -56.742188 17.328125 -56.453125 L 17.578125 -58.6875 C 17.640625 -59.03125 17.84375 -59.203125 18.1875 -59.203125 C 18.53125 -59.203125 18.726562 -59.03125 18.78125 -58.6875 C 19.019531 -55.875 19.164062 -53.015625 19.21875 -50.109375 C 19.28125 -47.210938 19.367188 -44.328125 19.484375 -41.453125 C 19.597656 -40.015625 19.695312 -38.546875 19.78125 -37.046875 C 19.863281 -35.554688 19.960938 -34.066406 20.078125 -32.578125 C 20.191406 -31.828125 20.265625 -31.078125 20.296875 -30.328125 C 20.328125 -29.585938 20.367188 -28.816406 20.421875 -28.015625 Z M 18.1875 -14.140625 C 19.332031 -14.140625 20.304688 -13.664062 21.109375 -12.71875 C 21.921875 -11.769531 22.210938 -10.71875 21.984375 -9.5625 C 21.867188 -8.820312 21.535156 -8.21875 20.984375 -7.75 C 20.441406 -7.289062 19.796875 -6.945312 19.046875 -6.71875 C 18.992188 -6.664062 18.847656 -6.582031 18.609375 -6.46875 C 16.710938 -5.65625 14.90625 -5.882812 13.1875 -7.15625 C 12.4375 -7.726562 12.132812 -8.328125 12.28125 -8.953125 C 12.425781 -9.585938 12.5 -9.960938 12.5 -10.078125 C 12.269531 -10.660156 12.3125 -11.179688 12.625 -11.640625 C 12.9375 -12.097656 13.441406 -12.328125 14.140625 -12.328125 C 14.648438 -12.898438 15.234375 -13.359375 15.890625 -13.703125 C 16.554688 -14.046875 17.320312 -14.191406 18.1875 -14.140625 Z M 18.1875 -14.140625 "/></g></g></g></g></g><g clip-path="url(#3d47806a17)"><path fill="#5f2403" d="M 95.6875 230.265625 C 94.621094 230.265625 93.507812 230.265625 92.441406 230.265625 C 91.585938 230.265625 91.113281 230.308594 91.5 231.464844 C 91.753906 232.191406 89.53125 233.34375 88.890625 232.789062 C 87.90625 231.976562 88.636719 231.421875 89.363281 230.910156 C 89.574219 230.78125 89.746094 230.609375 89.960938 230.4375 C 89.703125 230.351562 89.445312 230.265625 89.234375 230.222656 C 88.035156 230.097656 87.179688 230.523438 86.453125 231.507812 C 86.113281 231.976562 85.34375 232.105469 85.257812 231.335938 C 85.128906 230.179688 84.1875 229.710938 83.675781 228.855469 C 82.820312 227.488281 82.863281 226.675781 83.847656 225.4375 C 84.402344 224.753906 85.300781 224.324219 85.171875 223.214844 C 85.128906 222.785156 85.558594 222.613281 85.941406 222.742188 C 88.25 223.46875 89.0625 223.042969 90.984375 222.273438 C 93.550781 221.203125 96.03125 219.707031 98.980469 219.792969 C 99.707031 219.835938 100.175781 219.535156 100.734375 219.324219 C 103.46875 218.296875 106.207031 217.613281 109.113281 217.101562 C 111.464844 216.671875 113.859375 216.457031 116.207031 216.03125 C 118.003906 215.773438 119.160156 214.148438 120.570312 213.039062 C 121.9375 211.925781 123.21875 210.902344 125.058594 210.988281 C 126.339844 211.070312 127.367188 210.429688 128.308594 209.832031 C 129.847656 208.847656 131.554688 208.292969 133.179688 207.523438 C 134.632812 206.839844 136.472656 206.882812 138.140625 206.667969 C 139.125 206.539062 140.105469 206.539062 141.132812 206.582031 C 142.03125 206.582031 142.84375 206.625 143.355469 205.558594 C 143.613281 205.042969 144.296875 204.359375 145.109375 205.214844 C 145.578125 205.683594 145.878906 205.34375 146.175781 204.957031 C 146.734375 204.230469 147.03125 204.703125 147.417969 205.171875 C 147.800781 205.683594 147.417969 206.710938 148.570312 206.710938 C 149.511719 206.710938 150.367188 206.625 150.921875 205.683594 C 151.09375 205.34375 151.351562 205.042969 151.734375 205.257812 C 151.90625 205.34375 151.949219 205.726562 151.992188 205.984375 C 152.332031 207.78125 152.332031 207.910156 154.128906 207.695312 C 155.199219 207.566406 155.925781 207.695312 156.351562 208.679688 C 156.863281 209.789062 157.804688 209.875 158.832031 209.832031 C 159.816406 209.789062 160.796875 209.789062 161.824219 209.789062 C 162.636719 209.789062 163.277344 209.832031 163.621094 208.722656 C 163.875 207.824219 165.160156 207.953125 165.457031 208.933594 C 165.800781 209.917969 166.3125 209.960938 167.082031 209.875 C 170.671875 209.449219 174.308594 209.617188 177.898438 209.40625 C 178.15625 209.40625 178.582031 209.449219 178.710938 209.320312 C 179.90625 207.953125 181.0625 207.992188 182.257812 209.277344 C 183.839844 208.464844 185.550781 209.0625 187.175781 209.0625 C 190.765625 209.105469 194.441406 208.207031 198.035156 209.191406 C 198.632812 209.363281 199.316406 209.449219 199.914062 209.277344 C 201.964844 208.679688 204.019531 209.148438 206.027344 209.019531 C 207.996094 208.890625 210.175781 209.363281 212.054688 208.207031 C 212.527344 207.910156 212.996094 207.566406 213.550781 207.992188 C 213.636719 208.035156 213.722656 208.078125 213.808594 208.078125 C 215.046875 208.335938 214.363281 206.539062 215.648438 206.496094 C 216.671875 206.496094 216.757812 208.035156 217.914062 207.4375 C 219.453125 206.625 221.078125 206.496094 222.828125 206.496094 C 223.46875 206.496094 224.15625 206.15625 224.839844 206.539062 C 225.050781 206.667969 225.394531 206.539062 225.652344 206.667969 C 226.890625 207.183594 227.445312 205.128906 228.34375 205.726562 C 229.414062 206.453125 230.4375 206.625 231.636719 206.625 C 232.703125 206.625 233.816406 206.539062 234.84375 207.011719 C 235.226562 207.183594 235.613281 207.097656 235.78125 206.753906 C 236.210938 205.941406 236.679688 206.027344 237.234375 206.582031 C 237.363281 206.753906 237.75 207.054688 237.792969 206.796875 C 238.132812 204.703125 239.460938 206.414062 240.230469 206.113281 C 240.742188 205.941406 241.039062 206.199219 241.210938 206.710938 C 241.640625 208.078125 242.792969 208.25 243.992188 208.335938 C 244.972656 208.378906 245.957031 208.378906 246.984375 208.421875 C 247.539062 208.421875 248.179688 208.421875 248.4375 207.910156 C 248.949219 206.925781 249.121094 206.199219 250.230469 207.566406 C 250.875 208.378906 253.738281 207.78125 254.507812 207.054688 C 255.0625 206.539062 254.121094 206.070312 254.59375 205.601562 C 254.847656 205.34375 255.0625 205 255.449219 205.042969 C 255.960938 205.085938 255.917969 205.515625 255.832031 205.855469 C 255.703125 206.285156 255.492188 206.667969 255.363281 207.097656 C 255.105469 207.992188 255.660156 208.421875 256.304688 208.078125 C 257.113281 207.652344 257.457031 207.867188 258.140625 208.335938 C 259.59375 209.277344 261.390625 208.933594 262.886719 208.550781 C 266.179688 207.695312 269.511719 207.566406 272.804688 207.140625 C 274.984375 206.882812 277.207031 207.097656 279.386719 207.394531 C 279.859375 207.4375 280.242188 207.609375 280.671875 207.351562 C 281.910156 206.582031 282.808594 207.523438 283.917969 207.824219 C 284.859375 208.078125 286.183594 207.011719 286.996094 207.738281 C 288.492188 209.019531 290.929688 209.363281 291.316406 211.839844 C 291.445312 212.609375 292.128906 212.996094 292.640625 213.507812 C 293.921875 214.75 294.691406 215.988281 294.136719 217.996094 C 293.796875 219.238281 294.136719 220.734375 292.941406 221.675781 C 290.929688 223.296875 288.878906 224.878906 286.871094 226.460938 C 286.058594 227.0625 285.332031 226.375 284.5625 226.25 C 282.59375 225.863281 280.757812 225.222656 279.515625 223.554688 C 279.089844 222.957031 278.449219 223 277.847656 222.785156 C 276.054688 222.230469 274.386719 221.417969 272.675781 220.648438 C 270.710938 219.75 268.402344 219.492188 266.179688 219.195312 C 261.902344 218.640625 257.585938 218.765625 253.308594 218.125 C 251.984375 217.914062 250.617188 218.039062 249.25 218.039062 C 246.683594 217.996094 244.117188 217.953125 241.597656 217.570312 C 240.527344 217.398438 240.144531 218.082031 240.144531 218.980469 C 240.144531 219.835938 240.101562 220.691406 239.074219 220.90625 C 237.960938 221.117188 236.894531 220.988281 236.082031 220.09375 C 235.695312 219.707031 235.527344 219.152344 235.140625 218.808594 C 234.5 218.167969 233.644531 217.570312 232.746094 217.785156 C 229.113281 218.683594 225.523438 217.65625 221.886719 217.742188 C 219.621094 217.828125 217.355469 217.996094 215.089844 218.167969 C 213.339844 218.296875 211.628906 217.953125 209.832031 218.039062 C 207.351562 218.167969 204.789062 218.039062 202.265625 218.167969 C 199.316406 218.339844 196.367188 218.167969 193.460938 218.296875 C 191.152344 218.425781 188.84375 218.722656 186.578125 219.066406 C 186.148438 219.109375 185.808594 219.238281 185.335938 219.109375 C 183.710938 218.554688 182.085938 218.765625 180.589844 219.410156 C 178.453125 220.304688 176.144531 219.578125 173.964844 220.347656 C 171.316406 221.289062 168.449219 220.988281 165.714844 220.988281 C 165.074219 220.988281 164.347656 220.90625 163.875 221.203125 C 161.097656 222.742188 158.019531 222.1875 155.113281 222.699219 C 151.949219 223.214844 148.742188 223.425781 145.621094 224.152344 C 142.242188 224.921875 138.695312 225.179688 135.277344 225.90625 C 132.582031 226.503906 129.761719 226.460938 127.152344 227.445312 C 126.980469 227.488281 126.769531 227.53125 126.640625 227.488281 C 124.203125 226.417969 121.894531 228.085938 119.542969 227.914062 C 117.535156 227.789062 115.695312 228.601562 113.644531 228.472656 C 111.890625 228.386719 110.054688 229.285156 108.300781 229.882812 C 107.828125 230.054688 107.488281 230.523438 106.890625 230.4375 C 106.546875 230.394531 106.121094 230.394531 106.207031 230.949219 C 106.25 231.207031 106.417969 231.464844 106.761719 231.464844 C 108.554688 231.421875 107.402344 232.617188 107.273438 233.046875 C 106.976562 234.199219 106.375 233.34375 105.863281 233.089844 C 105.351562 232.875 105.179688 232.875 105.007812 232.789062 C 104.28125 232.449219 104.324219 231.121094 103.253906 231.378906 C 102.484375 231.550781 101.757812 231.933594 101.203125 232.574219 C 100.820312 232.960938 100.347656 233.386719 99.878906 232.746094 C 99.535156 232.320312 99.40625 231.890625 100.007812 231.378906 C 100.820312 230.652344 100.304688 230.308594 99.492188 230.308594 C 98.210938 230.222656 96.972656 230.265625 95.6875 230.265625 Z M 133.050781 234.628906 C 133.011719 235.054688 132.96875 235.738281 132.453125 235.652344 C 131.128906 235.484375 130.015625 236.210938 128.777344 236.335938 C 126.9375 236.464844 125.484375 237.707031 123.777344 238.261719 C 123.175781 238.433594 122.578125 239.117188 122.75 240.015625 C 122.878906 240.785156 123.605469 240.910156 124.160156 241.125 C 124.929688 241.425781 125.699219 241.167969 126.511719 241.039062 C 129.503906 240.527344 132.496094 240.101562 135.488281 239.714844 C 136.128906 239.628906 136.730469 239.714844 137.285156 239.332031 C 138.183594 238.6875 138.695312 239.074219 139.125 240.015625 C 139.335938 240.484375 139.636719 241.382812 140.449219 241.082031 C 141.304688 240.785156 141.390625 240.140625 140.832031 239.371094 C 140.492188 238.902344 140.832031 238.519531 141.347656 238.476562 C 144.253906 238.175781 147.203125 237.960938 150.109375 237.621094 C 152.71875 237.320312 155.496094 238.21875 157.890625 237.191406 C 160.585938 236.039062 163.320312 236.980469 165.96875 236.421875 C 167.082031 236.167969 167.59375 238.003906 168.578125 237.191406 C 169.390625 236.507812 170.246094 236.253906 171.230469 236.082031 C 171.742188 235.996094 172.296875 235.738281 172.8125 235.824219 C 173.625 235.996094 174.691406 235.910156 174.648438 237.277344 C 174.648438 237.621094 174.949219 237.960938 175.375 237.917969 C 175.761719 237.875 176.144531 237.492188 176.058594 237.191406 C 175.503906 235.226562 176.488281 235.269531 177.898438 235.695312 C 178.113281 235.78125 178.496094 235.738281 178.667969 235.566406 C 180.675781 234.199219 182.644531 234.328125 184.566406 235.652344 C 184.910156 235.867188 185.292969 235.953125 185.550781 235.695312 C 186.191406 235.183594 186.40625 235.398438 186.917969 236.039062 C 187.773438 237.105469 188.242188 236.9375 188.757812 235.484375 C 188.96875 234.839844 189.269531 234.5 189.824219 234.542969 C 190.894531 234.671875 192.261719 233.21875 193.117188 235.054688 C 193.160156 235.140625 193.671875 235.183594 193.84375 235.054688 C 196.109375 233.472656 198.332031 234.585938 200.511719 235.140625 C 201.539062 235.398438 202.394531 235.910156 203.035156 236.980469 C 204.191406 238.816406 204.316406 238.6875 206.113281 237.449219 C 207.566406 236.421875 208.890625 235.609375 211.074219 236.210938 C 213.039062 236.722656 215.304688 236.636719 217.527344 236.253906 C 219.453125 235.910156 221.375 235.527344 223.511719 236.082031 C 225.136719 236.507812 227.0625 236.980469 228.941406 236.335938 C 230.953125 235.652344 230.996094 235.738281 232.320312 237.621094 C 233.003906 238.5625 233.601562 239.117188 234.96875 238.5625 C 235.652344 238.261719 237.023438 237.960938 237.234375 239.585938 C 237.320312 240.226562 237.960938 240.398438 238.519531 240.101562 C 239.203125 239.757812 239.332031 239.246094 238.816406 238.5625 C 238.476562 238.132812 238.261719 237.621094 238.089844 237.105469 C 237.960938 236.679688 238.003906 236.210938 238.476562 235.910156 C 239.289062 235.441406 242.023438 236.167969 242.621094 237.023438 C 243.308594 238.003906 244.417969 238.519531 245.574219 238.519531 C 245.914062 238.519531 246.300781 238.644531 246.640625 238.6875 C 247.796875 238.859375 248.777344 238.601562 249.378906 237.492188 C 250.230469 238.089844 251.128906 238.476562 252.15625 237.875 C 252.925781 237.449219 253.695312 236.980469 254.464844 236.507812 C 254.976562 236.210938 255.535156 236.082031 255.960938 236.464844 C 256.6875 237.148438 257.457031 238.261719 258.355469 237.578125 C 258.953125 237.148438 257.800781 236.125 257.628906 235.269531 C 257.585938 235.011719 257.671875 234.714844 257.800781 234.5 C 258.054688 234.027344 258.398438 234.328125 258.695312 234.457031 C 258.867188 234.542969 258.996094 234.671875 259.125 234.757812 C 259.636719 235.054688 260.109375 235.183594 260.578125 234.671875 C 261.003906 234.242188 260.578125 233.902344 260.492188 233.472656 C 260.109375 231.933594 258.910156 230.652344 259.125 228.898438 C 259.167969 228.429688 258.78125 228.042969 258.355469 227.875 C 257.457031 227.53125 256.945312 226.804688 256.304688 226.121094 C 255.660156 225.4375 254.976562 225.136719 253.953125 225.050781 C 250.230469 224.667969 246.597656 224.109375 242.835938 224.238281 C 241.597656 224.28125 240.441406 224.625 239.203125 224.582031 C 236.253906 224.453125 233.347656 225.222656 230.480469 225.734375 C 229.15625 225.992188 228 226.632812 226.632812 225.949219 C 226.421875 225.863281 226.121094 225.992188 225.863281 226.078125 C 223.8125 226.675781 221.761719 226.375 219.664062 226.417969 C 218.726562 226.460938 217.613281 226.546875 217.058594 225.394531 C 216.886719 225.007812 216.375 224.878906 216.160156 225.136719 C 215.304688 226.078125 214.109375 225.480469 213.082031 225.863281 C 211.457031 226.503906 209.960938 226.078125 208.722656 224.835938 C 208.378906 224.453125 207.910156 224.324219 207.523438 224.453125 C 206.625 224.796875 205.898438 226.890625 204.832031 224.625 C 204.703125 224.710938 204.488281 224.796875 204.402344 224.921875 C 203.71875 226.035156 202.863281 225.863281 201.667969 225.777344 C 200.128906 225.691406 198.503906 225.777344 196.964844 225.820312 C 195.554688 225.863281 194.144531 225.308594 192.773438 225.691406 C 188.328125 226.933594 183.710938 226.71875 179.222656 227.144531 C 174.949219 227.574219 170.800781 228.683594 166.570312 229.242188 C 165.203125 229.410156 163.875 229.199219 162.550781 229.496094 C 160.542969 229.925781 158.53125 230.179688 156.480469 230.394531 C 154.257812 230.652344 151.992188 230.910156 149.769531 230.992188 C 148.484375 231.035156 147.289062 231.761719 146.132812 231.761719 C 143.3125 231.71875 140.707031 232.277344 138.226562 233.515625 C 136.515625 234.414062 134.550781 234.027344 132.796875 234.671875 Z M 263.441406 239.371094 C 263.226562 238.902344 262.628906 238.773438 262.375 239.289062 C 261.859375 240.3125 261.046875 241.082031 260.363281 241.9375 C 260.066406 242.324219 260.320312 242.578125 260.75 242.707031 C 262.03125 242.835938 263.957031 240.484375 263.441406 239.371094 Z M 86.539062 240.355469 C 86.667969 241.210938 87.136719 242.195312 87.867188 242.023438 C 88.847656 241.765625 88.421875 240.828125 87.992188 240.101562 C 87.867188 239.886719 87.78125 239.585938 87.824219 239.371094 C 87.867188 238.859375 87.738281 238.519531 87.136719 238.519531 C 86.410156 238.519531 86.285156 238.988281 86.367188 239.585938 C 86.453125 239.84375 86.496094 240.101562 86.539062 240.355469 Z M 91.839844 238.773438 C 91.796875 238.601562 91.371094 238.519531 91.15625 238.519531 C 90.859375 238.519531 90.730469 238.816406 90.730469 239.074219 C 90.773438 240.226562 91.285156 241.253906 91.710938 242.28125 C 91.796875 242.492188 92.054688 242.707031 92.355469 242.578125 C 92.609375 242.449219 92.738281 242.238281 92.695312 241.554688 C 92.480469 240.910156 92.183594 239.84375 91.839844 238.773438 Z M 98.511719 233.132812 C 97.996094 232.449219 97.3125 232.40625 96.542969 232.617188 C 96.246094 232.703125 95.476562 234.796875 95.644531 234.96875 C 95.773438 235.097656 95.945312 235.183594 96.074219 235.226562 C 96.585938 235.3125 98.554688 234.113281 98.636719 233.644531 C 98.59375 233.472656 98.59375 233.257812 98.511719 233.132812 Z M 256.472656 241.039062 C 256.515625 241.554688 256.730469 242.238281 257.414062 242.023438 C 258.054688 241.851562 258.824219 241.597656 258.78125 240.65625 C 258.738281 239.972656 258.140625 240.269531 257.800781 240.183594 C 257.15625 240.140625 256.386719 240.058594 256.472656 241.039062 Z M 233.132812 202.351562 C 232.617188 202.480469 232.019531 202.863281 232.0625 203.632812 C 232.0625 204.1875 232.449219 204.105469 232.789062 204.144531 C 233.386719 204.1875 233.859375 204.019531 233.773438 203.25 C 233.644531 202.863281 233.515625 202.222656 233.132812 202.351562 Z M 228.898438 202.308594 C 229.027344 201.796875 228.769531 201.324219 228.386719 201.28125 C 227.875 201.195312 227.402344 201.625 227.273438 202.09375 C 227.148438 202.566406 227.53125 202.863281 228 203.035156 C 228.515625 203.035156 228.769531 202.777344 228.898438 202.308594 Z M 249.164062 240.441406 C 249.164062 239.929688 248.992188 239.628906 248.4375 239.585938 C 247.753906 239.542969 247.496094 239.929688 247.539062 240.570312 C 247.539062 241.167969 247.796875 241.554688 248.4375 241.640625 C 249.035156 241.46875 249.164062 240.996094 249.164062 240.441406 Z M 258.527344 204.957031 C 258.527344 205.515625 258.953125 205.683594 259.464844 205.683594 C 259.808594 205.683594 260.320312 205.726562 260.320312 205.300781 C 260.363281 204.703125 259.980469 204.359375 259.382812 204.1875 C 258.867188 204.144531 258.527344 204.402344 258.527344 204.957031 Z M 94.0625 232.234375 C 94.105469 232.746094 94.40625 233.089844 94.917969 232.960938 C 95.644531 232.789062 95.601562 232.234375 95.519531 231.679688 C 95.476562 231.292969 95.261719 231.035156 94.875 230.992188 C 94.277344 231.164062 94.019531 231.636719 94.0625 232.234375 Z M 132.96875 234.671875 C 133.179688 234.15625 133.90625 233.601562 133.011719 233.089844 C 132.625 232.875 132.113281 232.917969 131.726562 233.175781 C 131.386719 233.386719 131.34375 233.816406 131.472656 234.15625 C 131.726562 235.054688 132.410156 234.714844 133.011719 234.671875 Z M 255.363281 240.441406 C 255.320312 239.929688 254.890625 239.414062 254.292969 239.457031 C 253.824219 239.457031 253.523438 239.84375 253.523438 240.355469 C 253.523438 240.953125 253.953125 241.039062 254.507812 241.039062 C 254.847656 240.996094 255.449219 241.082031 255.363281 240.441406 Z M 84.703125 240.910156 C 84.660156 240.570312 84.402344 240.226562 83.976562 240.269531 C 83.207031 240.269531 83.207031 240.828125 83.207031 241.382812 C 83.207031 241.765625 83.332031 242.066406 83.804688 242.109375 C 84.316406 241.851562 84.789062 241.511719 84.703125 240.910156 Z M 175.804688 206.414062 C 176.058594 206.371094 176.359375 206.113281 176.230469 205.8125 C 176.015625 205.34375 175.71875 204.789062 175.078125 205.042969 C 174.734375 205.171875 174.476562 205.472656 174.519531 205.855469 C 174.734375 206.539062 175.289062 206.539062 175.804688 206.414062 Z M 95.601562 243.90625 C 95.003906 243.988281 95.003906 244.417969 95.046875 244.886719 C 95.089844 245.273438 95.304688 245.527344 95.730469 245.316406 C 96.117188 245.101562 96.414062 244.800781 96.414062 244.332031 C 96.289062 243.90625 95.988281 243.863281 95.601562 243.90625 Z M 86.027344 232.617188 C 85.726562 232.449219 85.300781 233.003906 85.257812 233.472656 C 85.214844 233.988281 85.597656 234.371094 85.984375 234.5 C 86.328125 234.628906 86.582031 234.242188 86.796875 233.816406 C 86.539062 233.472656 86.367188 232.832031 86.027344 232.617188 Z M 222.574219 203.335938 C 222.230469 203.164062 221.847656 203.335938 221.71875 203.632812 C 221.503906 204.0625 221.804688 204.1875 222.1875 204.230469 C 222.53125 204.230469 222.871094 204.316406 223.042969 203.847656 C 222.914062 203.675781 222.785156 203.417969 222.574219 203.335938 Z M 221.804688 223.941406 C 221.71875 223.554688 221.289062 223.171875 220.777344 223.296875 C 220.390625 223.382812 220.308594 223.769531 220.308594 224.152344 C 220.308594 224.539062 220.433594 224.835938 220.949219 224.667969 C 221.160156 224.324219 221.929688 224.496094 221.804688 223.941406 Z M 252.753906 241.679688 C 252.414062 241.597656 252.027344 241.722656 251.941406 242.109375 C 251.855469 242.535156 252.15625 242.707031 252.539062 242.75 C 252.882812 242.75 253.226562 242.792969 253.394531 242.410156 C 253.351562 242.023438 253.097656 241.765625 252.753906 241.679688 Z M 80.382812 232.363281 C 80.296875 232.660156 80.46875 232.917969 80.726562 233.003906 C 81.109375 233.089844 81.367188 232.832031 81.539062 232.488281 C 81.710938 232.105469 81.496094 231.804688 81.28125 231.550781 C 80.8125 231.59375 80.511719 231.890625 80.382812 232.363281 Z M 257.882812 243.347656 C 257.542969 243.304688 257.414062 243.5625 257.371094 243.820312 C 257.328125 244.246094 257.542969 244.460938 257.96875 244.460938 C 258.269531 244.460938 258.652344 244.546875 258.824219 244.117188 C 258.652344 243.734375 258.398438 243.390625 257.882812 243.347656 Z M 110.566406 231.507812 C 110.394531 231.507812 110.222656 231.550781 110.054688 231.59375 C 110.308594 231.761719 110.523438 231.933594 110.78125 232.0625 C 110.949219 232.148438 111.035156 232.105469 111.078125 231.890625 C 111.078125 231.59375 110.863281 231.507812 110.566406 231.507812 Z M 160.542969 238.644531 C 160.414062 238.6875 160.328125 238.902344 160.328125 239.074219 C 160.328125 239.332031 160.5 239.371094 160.667969 239.160156 C 160.796875 239.03125 160.882812 238.902344 161.011719 238.773438 C 160.839844 238.6875 160.625 238.601562 160.542969 238.644531 Z M 160.542969 238.644531 " fill-opacity="1" fill-rule="nonzero"/></g><g clip-path="url(#1e3dfedfa7)"><path fill="#5f2403" d="M 286.460938 153.160156 C 284.847656 152.761719 284.214844 151.882812 283.605469 149.171875 C 283.015625 146.5625 282.691406 145.667969 281.988281 144.707031 C 281.421875 143.9375 280.6875 143.59375 279.617188 143.59375 C 278.28125 143.59375 277.589844 143.089844 277.132812 141.789062 C 276.644531 140.398438 276.554688 137.890625 276.949219 136.777344 C 277.207031 136.058594 277.867188 135.238281 278.582031 134.757812 C 278.9375 134.515625 280.203125 133.953125 281.597656 133.417969 C 284.265625 132.394531 286.058594 131.539062 287.84375 130.4375 C 290.15625 129.011719 292.792969 127.007812 294.433594 125.4375 C 295.480469 124.433594 295.523438 124.367188 295.746094 123.519531 C 295.960938 122.695312 296.253906 122.152344 296.734375 121.691406 C 297.089844 121.347656 297.21875 121.300781 297.847656 121.257812 C 299.023438 121.183594 299.761719 121.675781 300.78125 123.210938 C 302.242188 125.40625 303.714844 129.625 304.386719 133.535156 C 305.386719 139.375 304.640625 145.117188 302.777344 145.894531 C 302.0625 146.191406 301.683594 146.082031 300.261719 145.164062 C 299.890625 144.925781 299.242188 144.597656 298.824219 144.4375 C 296.429688 143.523438 290.816406 142.59375 287.667969 142.589844 C 286.5 142.589844 286.40625 142.605469 286.242188 142.835938 C 285.96875 143.230469 286.027344 144.105469 286.402344 145.164062 C 286.585938 145.683594 286.738281 146.226562 286.738281 146.367188 C 286.742188 146.695312 286.984375 147.164062 287.300781 147.449219 C 287.699219 147.8125 287.886719 148.273438 287.804688 148.699219 C 287.742188 149.03125 287.796875 149.164062 288.242188 149.757812 C 288.789062 150.484375 288.855469 150.796875 288.597656 151.433594 C 288.429688 151.847656 288.460938 152.011719 288.769531 152.410156 C 289.058594 152.785156 289.03125 153.082031 288.6875 153.210938 C 288.304688 153.355469 287.148438 153.332031 286.460938 153.160156 Z M 298.085938 141.890625 C 295.851562 137.417969 294.539062 130.523438 295.195312 126.679688 L 295.269531 126.25 L 294.382812 127.136719 C 293.148438 128.371094 292.082031 129.128906 288.902344 131.039062 C 284.882812 133.453125 284.261719 134.136719 284.1875 136.214844 C 284.105469 138.574219 285.023438 140.5 286.5625 141.199219 C 287.058594 141.425781 287.417969 141.472656 289.367188 141.570312 C 290.597656 141.632812 292.179688 141.765625 292.886719 141.863281 C 294.414062 142.078125 296.75 142.667969 297.917969 143.132812 C 298.378906 143.320312 298.785156 143.472656 298.820312 143.476562 C 298.855469 143.480469 298.527344 142.765625 298.085938 141.890625 Z M 298.867188 140.183594 C 299.132812 138.894531 299.207031 137.082031 299.039062 135.859375 C 298.722656 133.523438 297.671875 131.234375 296.503906 130.34375 L 296.097656 130.03125 L 296.175781 130.75 C 296.335938 132.238281 296.824219 135.210938 297.152344 136.664062 C 297.546875 138.425781 298.46875 141.300781 298.59375 141.171875 C 298.644531 141.121094 298.765625 140.675781 298.867188 140.183594 Z M 312.808594 144.070312 C 313.367188 142.679688 313.839844 140.859375 314.074219 139.167969 C 314.359375 137.113281 314.257812 133.222656 313.859375 131.15625 C 312.9375 126.339844 310.882812 122.632812 308.152344 120.847656 C 307.683594 120.542969 307.351562 120.273438 307.414062 120.253906 C 307.585938 120.195312 308.703125 120.640625 309.710938 121.160156 C 312.878906 122.808594 314.957031 125.527344 316.003906 129.398438 C 316.273438 130.398438 316.289062 130.621094 316.296875 133.199219 C 316.304688 135.667969 316.28125 136.058594 316.042969 137.167969 C 315.683594 138.839844 315.117188 140.503906 314.40625 141.972656 C 313.808594 143.207031 312.613281 145.160156 312.453125 145.160156 C 312.40625 145.160156 312.566406 144.667969 312.808594 144.070312 Z M 309.5 142.558594 C 311.226562 138.277344 311 132.398438 308.929688 127.988281 C 308.074219 126.15625 307.042969 124.878906 305.703125 123.992188 C 305.347656 123.757812 305.078125 123.542969 305.101562 123.515625 C 305.1875 123.433594 306.097656 123.804688 307.117188 124.339844 C 308.878906 125.265625 310.386719 126.878906 311.324219 128.847656 C 312.054688 130.371094 312.246094 131.28125 312.308594 133.503906 C 312.390625 136.386719 311.96875 138.472656 310.824219 140.855469 C 310.3125 141.925781 309.355469 143.480469 309.210938 143.480469 C 309.164062 143.480469 309.292969 143.066406 309.5 142.558594 Z M 276.214844 143.257812 C 273.953125 142.875 273.089844 141.964844 273.089844 139.960938 C 273.089844 138.808594 273.222656 138.296875 273.691406 137.601562 C 274.003906 137.132812 274.253906 136.957031 275.5625 136.25 C 277.101562 135.417969 277.542969 135.253906 277.214844 135.628906 C 276.632812 136.289062 276.347656 137.394531 276.347656 138.953125 C 276.347656 140.757812 276.691406 141.839844 277.589844 142.859375 L 278.039062 143.371094 L 277.386719 143.355469 C 277.027344 143.351562 276.5 143.304688 276.214844 143.257812 Z M 276.179688 142.167969 C 275.695312 140.914062 275.523438 140.015625 275.515625 138.648438 C 275.507812 137.25 275.40625 136.925781 275.195312 137.621094 C 275.144531 137.800781 275.09375 138.453125 275.085938 139.066406 C 275.078125 140.042969 275.121094 140.324219 275.4375 141.273438 C 275.738281 142.183594 275.835938 142.363281 276.027344 142.363281 C 276.199219 142.363281 276.238281 142.316406 276.179688 142.167969 Z M 274.644531 141.105469 C 274.339844 140.167969 274.3125 139.96875 274.359375 138.9375 C 274.398438 137.996094 274.378906 137.8125 274.25 137.863281 C 273.992188 137.960938 273.886719 138.410156 273.886719 139.382812 C 273.890625 140.082031 273.953125 140.445312 274.15625 140.941406 C 274.769531 142.433594 275.113281 142.550781 274.644531 141.105469 Z M 306.378906 141.664062 C 307.003906 140.128906 307.21875 138.984375 307.277344 136.867188 C 307.320312 135.328125 307.292969 134.636719 307.144531 133.738281 C 306.910156 132.320312 306.335938 130.554688 305.726562 129.378906 C 305.214844 128.402344 304 127.007812 303.347656 126.65625 C 303.128906 126.539062 302.945312 126.398438 302.945312 126.347656 C 302.945312 126.078125 304.839844 127.011719 305.695312 127.703125 C 307.535156 129.183594 308.582031 131.375 308.722656 134.035156 C 308.835938 136.148438 308.449219 138.164062 307.570312 140.015625 C 307.0625 141.097656 306.304688 142.363281 306.167969 142.363281 C 306.125 142.363281 306.21875 142.050781 306.378906 141.664062 Z M 306.378906 141.664062 " fill-opacity="1" fill-rule="nonzero"/></g><g clip-path="url(#f56a0aafb7)"><path fill="#5f2403" d="M 326.410156 117.367188 L 324.988281 117.367188 C 324.359375 117.367188 324.097656 116.910156 324.097656 116.46875 C 324.097656 116.011719 324.425781 115.566406 324.988281 115.566406 L 329.792969 115.566406 C 330.351562 115.566406 330.679688 116.011719 330.679688 116.46875 C 330.679688 116.910156 330.417969 117.367188 329.792969 117.367188 L 328.367188 117.367188 L 328.367188 123.921875 C 328.367188 124.574219 327.949219 124.941406 327.390625 124.941406 C 326.828125 124.941406 326.410156 124.574219 326.410156 123.921875 Z M 332.0625 116.492188 C 332.140625 116.023438 332.648438 115.488281 333.34375 115.488281 C 333.996094 115.488281 334.503906 115.960938 334.648438 116.429688 L 336.1875 121.597656 L 336.214844 121.597656 L 337.753906 116.429688 C 337.898438 115.957031 338.40625 115.488281 339.058594 115.488281 C 339.753906 115.488281 340.261719 116.023438 340.339844 116.492188 L 341.554688 123.777344 C 341.566406 123.855469 341.566406 123.933594 341.566406 124 C 341.566406 124.574219 341.148438 124.941406 340.625 124.941406 C 339.960938 124.941406 339.699219 124.640625 339.609375 124.027344 L 338.839844 118.714844 L 338.8125 118.714844 L 337.246094 124.183594 C 337.152344 124.496094 336.90625 124.941406 336.203125 124.941406 C 335.496094 124.941406 335.246094 124.496094 335.15625 124.183594 L 333.589844 118.714844 L 333.5625 118.714844 L 332.792969 124.027344 C 332.703125 124.640625 332.441406 124.941406 331.773438 124.941406 C 331.253906 124.941406 330.835938 124.574219 330.835938 124 C 330.835938 123.933594 330.835938 123.855469 330.847656 123.777344 Z M 332.0625 116.492188 " fill-opacity="1" fill-rule="nonzero"/></g><g transform="matrix(1, 0, 0, 1, 149, 246)"><g clip-path="url(#d6c0f21c87)"><g clip-path="url(#643ec9bafb)"><g fill="#5f2403" fill-opacity="1"><g transform="translate(0.357002, 10.090144)"><g><path d="M 5.28125 -5.296875 C 5.28125 -4.578125 5.054688 -4.039062 4.609375 -3.6875 C 4.160156 -3.34375 3.535156 -3.171875 2.734375 -3.171875 L 1.0625 -3.171875 L 1.0625 0 L 0.28125 0 L 0.28125 -7.421875 L 2.71875 -7.421875 C 3.53125 -7.421875 4.160156 -7.242188 4.609375 -6.890625 C 5.054688 -6.535156 5.28125 -6.003906 5.28125 -5.296875 Z M 4.5 -5.296875 C 4.5 -5.804688 4.335938 -6.175781 4.015625 -6.40625 C 3.703125 -6.632812 3.273438 -6.75 2.734375 -6.75 L 1.0625 -6.75 L 1.0625 -3.84375 L 2.734375 -3.84375 C 3.273438 -3.84375 3.703125 -3.957031 4.015625 -4.1875 C 4.335938 -4.414062 4.5 -4.785156 4.5 -5.296875 Z M 4.5 -5.296875 "/></g></g><g transform="translate(6.714167, 10.090144)"><g><path d="M 5.015625 -2.640625 C 5.015625 -2.222656 4.96875 -1.84375 4.875 -1.5 C 4.78125 -1.15625 4.632812 -0.863281 4.4375 -0.625 C 4.25 -0.382812 4.003906 -0.195312 3.703125 -0.0625 C 3.398438 0.0625 3.046875 0.125 2.640625 0.125 C 2.234375 0.125 1.878906 0.0625 1.578125 -0.0625 C 1.273438 -0.195312 1.03125 -0.382812 0.84375 -0.625 C 0.65625 -0.863281 0.515625 -1.15625 0.421875 -1.5 C 0.328125 -1.851562 0.28125 -2.238281 0.28125 -2.65625 L 0.28125 -7.421875 L 1.0625 -7.421875 L 1.0625 -2.640625 C 1.0625 -2.421875 1.078125 -2.1875 1.109375 -1.9375 C 1.148438 -1.6875 1.226562 -1.457031 1.34375 -1.25 C 1.457031 -1.039062 1.617188 -0.867188 1.828125 -0.734375 C 2.035156 -0.597656 2.304688 -0.53125 2.640625 -0.53125 C 2.972656 -0.53125 3.242188 -0.597656 3.453125 -0.734375 C 3.671875 -0.867188 3.835938 -1.039062 3.953125 -1.25 C 4.066406 -1.457031 4.140625 -1.6875 4.171875 -1.9375 C 4.210938 -2.1875 4.234375 -2.421875 4.234375 -2.640625 L 4.234375 -7.421875 L 5.015625 -7.421875 Z M 5.015625 -2.640625 "/></g></g><g transform="translate(13.071332, 10.090144)"><g><path d="M 5.28125 -2.125 C 5.28125 -1.414062 5.050781 -0.882812 4.59375 -0.53125 C 4.132812 -0.175781 3.484375 0 2.640625 0 L 0.28125 0 L 0.28125 -7.421875 L 2.515625 -7.421875 C 2.828125 -7.421875 3.128906 -7.394531 3.421875 -7.34375 C 3.722656 -7.289062 3.992188 -7.191406 4.234375 -7.046875 C 4.472656 -6.910156 4.664062 -6.71875 4.8125 -6.46875 C 4.957031 -6.21875 5.03125 -5.894531 5.03125 -5.5 C 5.03125 -4.726562 4.644531 -4.203125 3.875 -3.921875 C 4.8125 -3.628906 5.28125 -3.03125 5.28125 -2.125 Z M 4.25 -5.5 C 4.25 -5.757812 4.191406 -5.972656 4.078125 -6.140625 C 3.972656 -6.304688 3.832031 -6.429688 3.65625 -6.515625 C 3.488281 -6.609375 3.300781 -6.671875 3.09375 -6.703125 C 2.894531 -6.734375 2.703125 -6.75 2.515625 -6.75 L 1.0625 -6.75 L 1.0625 -4.234375 L 2.515625 -4.234375 C 2.722656 -4.234375 2.925781 -4.25 3.125 -4.28125 C 3.332031 -4.3125 3.519531 -4.375 3.6875 -4.46875 C 3.851562 -4.5625 3.988281 -4.6875 4.09375 -4.84375 C 4.195312 -5.007812 4.25 -5.226562 4.25 -5.5 Z M 4.5 -2.125 C 4.5 -2.632812 4.332031 -3.003906 4 -3.234375 C 3.675781 -3.472656 3.222656 -3.59375 2.640625 -3.59375 L 1.0625 -3.59375 L 1.0625 -0.671875 L 2.640625 -0.671875 C 3.222656 -0.671875 3.675781 -0.789062 4 -1.03125 C 4.332031 -1.269531 4.5 -1.632812 4.5 -2.125 Z M 4.5 -2.125 "/></g></g><g transform="translate(19.428497, 10.090144)"><g><path d="M 5.015625 0 L 0.28125 0 L 0.28125 -7.421875 L 1.0625 -7.421875 L 1.0625 -0.671875 L 5.015625 -0.671875 Z M 5.015625 0 "/></g></g><g transform="translate(25.785662, 10.090144)"><g><path d="M 4.234375 0 L 1.0625 0 L 1.0625 -0.671875 L 2.25 -0.671875 L 2.25 -6.75 L 1.0625 -6.75 L 1.0625 -7.421875 L 4.234375 -7.421875 L 4.234375 -6.75 L 3.046875 -6.75 L 3.046875 -0.671875 L 4.234375 -0.671875 Z M 4.234375 0 "/></g></g><g transform="translate(32.142827, 10.090144)"><g><path d="M 5.34375 -1.9375 C 5.144531 -1.300781 4.828125 -0.796875 4.390625 -0.421875 C 3.953125 -0.0546875 3.398438 0.125 2.734375 0.125 C 2.210938 0.125 1.769531 0.0195312 1.40625 -0.1875 C 1.050781 -0.40625 0.757812 -0.6875 0.53125 -1.03125 C 0.300781 -1.382812 0.132812 -1.789062 0.03125 -2.25 C -0.0625 -2.71875 -0.109375 -3.203125 -0.109375 -3.703125 C -0.109375 -4.191406 -0.0625 -4.664062 0.03125 -5.125 C 0.132812 -5.59375 0.300781 -6.003906 0.53125 -6.359375 C 0.757812 -6.722656 1.050781 -7.007812 1.40625 -7.21875 C 1.769531 -7.4375 2.210938 -7.546875 2.734375 -7.546875 C 3.191406 -7.546875 3.582031 -7.460938 3.90625 -7.296875 C 4.238281 -7.128906 4.476562 -6.878906 4.625 -6.546875 L 4.625 -7.421875 L 5.296875 -7.421875 L 5.296875 -4.984375 L 4.625 -4.984375 C 4.625 -5.242188 4.570312 -5.488281 4.46875 -5.71875 C 4.375 -5.957031 4.238281 -6.160156 4.0625 -6.328125 C 3.894531 -6.503906 3.695312 -6.640625 3.46875 -6.734375 C 3.238281 -6.828125 2.992188 -6.875 2.734375 -6.875 C 2.328125 -6.875 1.992188 -6.78125 1.734375 -6.59375 C 1.472656 -6.40625 1.257812 -6.15625 1.09375 -5.84375 C 0.9375 -5.539062 0.828125 -5.203125 0.765625 -4.828125 C 0.703125 -4.453125 0.671875 -4.078125 0.671875 -3.703125 C 0.671875 -3.328125 0.703125 -2.953125 0.765625 -2.578125 C 0.828125 -2.203125 0.9375 -1.863281 1.09375 -1.5625 C 1.257812 -1.257812 1.472656 -1.007812 1.734375 -0.8125 C 1.992188 -0.625 2.328125 -0.53125 2.734375 -0.53125 C 3.660156 -0.53125 4.304688 -1.09375 4.671875 -2.21875 Z M 5.34375 -1.9375 "/></g></g><g transform="translate(38.499993, 10.090144)"><g><path d="M 5.65625 0 L 4.8125 0 L 4.125 -2.125 L 1.1875 -2.125 L 0.5 0 L -0.328125 0 L 2.125 -7.421875 L 3.1875 -7.421875 Z M 3.90625 -2.8125 L 2.65625 -6.640625 L 1.40625 -2.8125 Z M 3.90625 -2.8125 "/></g></g><g transform="translate(44.857158, 10.090144)"><g><path d="M 5.296875 -4.90625 L 4.625 -4.90625 L 4.625 -6.75 L 3.046875 -6.75 L 3.046875 -0.671875 L 4.234375 -0.671875 L 4.234375 0 L 1.0625 0 L 1.0625 -0.671875 L 2.25 -0.671875 L 2.25 -6.75 L 0.671875 -6.75 L 0.671875 -4.90625 L 0 -4.90625 L 0 -7.421875 L 5.296875 -7.421875 Z M 5.296875 -4.90625 "/></g></g><g transform="translate(51.214323, 10.090144)"><g><path d="M 4.234375 0 L 1.0625 0 L 1.0625 -0.671875 L 2.25 -0.671875 L 2.25 -6.75 L 1.0625 -6.75 L 1.0625 -7.421875 L 4.234375 -7.421875 L 4.234375 -6.75 L 3.046875 -6.75 L 3.046875 -0.671875 L 4.234375 -0.671875 Z M 4.234375 0 "/></g></g><g transform="translate(57.571488, 10.090144)"><g><path d="M 5.5 -3.703125 C 5.5 -3.203125 5.445312 -2.71875 5.34375 -2.25 C 5.238281 -1.789062 5.070312 -1.382812 4.84375 -1.03125 C 4.625 -0.6875 4.332031 -0.40625 3.96875 -0.1875 C 3.613281 0.0195312 3.175781 0.125 2.65625 0.125 C 2.132812 0.125 1.691406 0.0195312 1.328125 -0.1875 C 0.972656 -0.40625 0.679688 -0.6875 0.453125 -1.03125 C 0.222656 -1.382812 0.0625 -1.789062 -0.03125 -2.25 C -0.132812 -2.71875 -0.1875 -3.203125 -0.1875 -3.703125 C -0.1875 -4.191406 -0.132812 -4.664062 -0.03125 -5.125 C 0.0625 -5.59375 0.222656 -6.003906 0.453125 -6.359375 C 0.679688 -6.722656 0.976562 -7.007812 1.34375 -7.21875 C 1.707031 -7.4375 2.144531 -7.546875 2.65625 -7.546875 C 3.164062 -7.546875 3.597656 -7.4375 3.953125 -7.21875 C 4.316406 -7.007812 4.609375 -6.722656 4.828125 -6.359375 C 5.054688 -6.003906 5.222656 -5.59375 5.328125 -5.125 C 5.441406 -4.664062 5.5 -4.191406 5.5 -3.703125 Z M 4.71875 -3.703125 C 4.71875 -4.191406 4.671875 -4.628906 4.578125 -5.015625 C 4.484375 -5.410156 4.347656 -5.742188 4.171875 -6.015625 C 3.992188 -6.296875 3.773438 -6.507812 3.515625 -6.65625 C 3.265625 -6.800781 2.976562 -6.875 2.65625 -6.875 C 2.25 -6.875 1.910156 -6.78125 1.640625 -6.59375 C 1.378906 -6.40625 1.171875 -6.15625 1.015625 -5.84375 C 0.859375 -5.539062 0.75 -5.203125 0.6875 -4.828125 C 0.625 -4.453125 0.59375 -4.078125 0.59375 -3.703125 C 0.59375 -3.328125 0.625 -2.953125 0.6875 -2.578125 C 0.75 -2.203125 0.859375 -1.863281 1.015625 -1.5625 C 1.171875 -1.257812 1.378906 -1.007812 1.640625 -0.8125 C 1.910156 -0.625 2.25 -0.53125 2.65625 -0.53125 C 3.050781 -0.53125 3.378906 -0.625 3.640625 -0.8125 C 3.910156 -1.007812 4.125 -1.257812 4.28125 -1.5625 C 4.445312 -1.863281 4.5625 -2.203125 4.625 -2.578125 C 4.6875 -2.953125 4.71875 -3.328125 4.71875 -3.703125 Z M 4.71875 -3.703125 "/></g></g><g transform="translate(63.928653, 10.090144)"><g><path d="M 5.015625 0 L 4.046875 0 L 1.0625 -6.28125 L 1.0625 0 L 0.28125 0 L 0.28125 -7.421875 L 1.375 -7.421875 L 4.234375 -1.4375 L 4.234375 -7.421875 L 5.015625 -7.421875 Z M 5.015625 0 "/></g></g><g transform="translate(70.285818, 10.090144)"><g><path d="M 5.109375 -1.9375 C 5.109375 -1.625 5.039062 -1.335938 4.90625 -1.078125 C 4.78125 -0.828125 4.609375 -0.613281 4.390625 -0.4375 C 4.179688 -0.257812 3.9375 -0.117188 3.65625 -0.015625 C 3.375 0.078125 3.082031 0.125 2.78125 0.125 C 2.363281 0.125 1.976562 0.0507812 1.625 -0.09375 C 1.28125 -0.25 1.003906 -0.484375 0.796875 -0.796875 L 0.796875 0 L 0.140625 0 L 0.140625 -2.25 L 0.796875 -2.25 C 0.796875 -2 0.851562 -1.769531 0.96875 -1.5625 C 1.09375 -1.351562 1.242188 -1.171875 1.421875 -1.015625 C 1.609375 -0.867188 1.816406 -0.75 2.046875 -0.65625 C 2.285156 -0.570312 2.53125 -0.53125 2.78125 -0.53125 C 3 -0.53125 3.203125 -0.5625 3.390625 -0.625 C 3.578125 -0.6875 3.738281 -0.773438 3.875 -0.890625 C 4.019531 -1.003906 4.128906 -1.144531 4.203125 -1.3125 C 4.285156 -1.476562 4.328125 -1.671875 4.328125 -1.890625 C 4.328125 -2.128906 4.273438 -2.332031 4.171875 -2.5 C 4.066406 -2.664062 3.925781 -2.8125 3.75 -2.9375 C 3.570312 -3.0625 3.375 -3.164062 3.15625 -3.25 C 2.9375 -3.332031 2.710938 -3.414062 2.484375 -3.5 C 2.222656 -3.59375 1.957031 -3.691406 1.6875 -3.796875 C 1.414062 -3.898438 1.171875 -4.03125 0.953125 -4.1875 C 0.742188 -4.351562 0.570312 -4.550781 0.4375 -4.78125 C 0.3125 -5.007812 0.25 -5.289062 0.25 -5.625 C 0.25 -5.9375 0.3125 -6.207031 0.4375 -6.4375 C 0.5625 -6.675781 0.726562 -6.875 0.9375 -7.03125 C 1.144531 -7.195312 1.390625 -7.320312 1.671875 -7.40625 C 1.953125 -7.5 2.238281 -7.546875 2.53125 -7.546875 C 2.882812 -7.546875 3.210938 -7.46875 3.515625 -7.3125 C 3.828125 -7.164062 4.066406 -6.941406 4.234375 -6.640625 L 4.234375 -7.421875 L 4.921875 -7.421875 L 4.921875 -5.296875 L 4.234375 -5.296875 C 4.234375 -5.515625 4.1875 -5.722656 4.09375 -5.921875 C 4 -6.117188 3.875 -6.285156 3.71875 -6.421875 C 3.5625 -6.566406 3.378906 -6.675781 3.171875 -6.75 C 2.960938 -6.832031 2.75 -6.875 2.53125 -6.875 C 2.320312 -6.875 2.125 -6.847656 1.9375 -6.796875 C 1.757812 -6.753906 1.601562 -6.679688 1.46875 -6.578125 C 1.332031 -6.484375 1.222656 -6.359375 1.140625 -6.203125 C 1.054688 -6.046875 1.015625 -5.851562 1.015625 -5.625 C 1.015625 -5.4375 1.0625 -5.273438 1.15625 -5.140625 C 1.257812 -5.003906 1.390625 -4.882812 1.546875 -4.78125 C 1.710938 -4.675781 1.898438 -4.578125 2.109375 -4.484375 C 2.328125 -4.398438 2.550781 -4.316406 2.78125 -4.234375 C 3.0625 -4.140625 3.335938 -4.03125 3.609375 -3.90625 C 3.890625 -3.78125 4.140625 -3.632812 4.359375 -3.46875 C 4.578125 -3.300781 4.753906 -3.09375 4.890625 -2.84375 C 5.035156 -2.59375 5.109375 -2.289062 5.109375 -1.9375 Z M 5.109375 -1.9375 "/></g></g></g></g></g></g></svg>